<svg xmlns="http://www.w3.org/2000/svg" viewBox="0 0 122.64 98.56">
  <title>cook</title>
  <g id="Layer_2" data-name="Layer 2">
    <g id="cook">
      <path d="M32.53,24.66a30.07,30.07,0,0,1,2.17-6.79,20.3,20.3,0,0,0-2.44-.76,21,21,0,0,0-5.14-.62A21.34,21.34,0,0,0,12,52.92c6.18,6.19,13.53,6.33,21.08,6.33V86H89.53V59.25c8.25,0,14.69.07,21.09-6.33A21.34,21.34,0,0,0,95.53,16.49a21.83,21.83,0,0,0-4.35.43c-.53.11-1.06.24-1.57.39A30.21,30.21,0,0,1,92,24.66l-5.56,1.07a24.64,24.64,0,0,0-48.39,0l-5.56-1.07ZM27.44,64.84h-.32a27,27,0,1,1,0-54,26.8,26.8,0,0,1,10.43,2.1A30.59,30.59,0,0,1,43,7,30.28,30.28,0,0,1,81.55,7a30.59,30.59,0,0,1,5,5.31,27,27,0,1,1,8.93,52.5H95.2V98.45H27.44V64.84Z" style="fill: #231f20;stroke: #231f20;stroke-miterlimit: 22.9255847930908;stroke-width: 0.216000005602837px"/>
    </g>
  </g>
</svg>
