<?xml version="1.0" encoding="iso-8859-1"?>
<!-- Generator: Adobe Illustrator 19.0.0, SVG Export Plug-In . SVG Version: 6.00 Build 0)  -->
<svg version="1.1" id="Layer_1" xmlns="http://www.w3.org/2000/svg" xmlns:xlink="http://www.w3.org/1999/xlink" x="0px" y="0px"
	 viewBox="0 0 300 300" style="enable-background:new 0 0 300 300;" xml:space="preserve">
<g>
	<g>
		<g>
			<path d="M159.375,225v25c0,3.456,2.8,6.25,6.25,6.25s6.25-2.794,6.25-6.25v-25h6.25c3.45,0,6.25-2.794,6.25-6.25
				s-2.8-6.25-6.25-6.25H77.594c-2.985-17.714-18.424-31.25-36.969-31.25c-20.675,0-37.5,16.819-37.5,37.5
				s16.819,37.506,37.5,37.506c18.546,0,33.984-13.541,36.969-31.256H159.375z M40.625,243.756c-13.787,0-25-11.219-25-25.006
				s11.213-25,25-25s25,11.212,25,25S54.412,243.756,40.625,243.756z"/>
			<path d="M290.625,137.5h-6.25V85.094C284.375,34.2,249.213,0,196.875,0h-25c-52.338,0-87.5,34.194-87.5,85.094V137.5h-6.25
				c-3.45,0-6.25,2.794-6.25,6.25v18.75c0,3.456,2.8,6.25,6.25,6.25s6.25-2.794,6.25-6.25V150h200v85.106
				c0,29.375-20.612,52.394-46.919,52.394H134.375c-18.275,0-30.406-10.362-37.362-19.063c-2.163-2.7-6.094-3.138-8.788-0.975
				c-2.694,2.15-3.131,6.081-0.975,8.787C99.688,291.787,115.981,300,134.375,300h103.081c33.319,0,59.419-28.506,59.419-64.894
				V143.75C296.875,140.294,294.075,137.5,290.625,137.5z M96.875,137.5V85.094c0-44.094,29.438-72.594,75-72.594h25
				c45.563,0,75,28.494,75,72.594V137.5H96.875z"/>
			<path d="M193.731,216.131c-1.925,1.112-3.106,3.181-3.106,5.4V250c0,3.45-2.806,6.25-6.25,6.25c-3.45,0-6.25,2.794-6.25,6.25
				s2.8,6.25,6.25,6.25c10.338,0,18.75-8.412,18.75-18.75v-25.131c7.787-5.869,12.5-15.1,12.5-24.869
				c0-17.231-14.019-31.25-31.25-31.25s-31.25,14.019-31.25,31.25c0,3.456,2.8,6.25,6.25,6.25s6.25-2.794,6.25-6.25
				c0-10.338,8.412-18.75,18.75-18.75s18.75,8.412,18.75,18.75C203.125,206.675,199.612,212.706,193.731,216.131z"/>
		</g>
	</g>
</g>
<g>
</g>
<g>
</g>
<g>
</g>
<g>
</g>
<g>
</g>
<g>
</g>
<g>
</g>
<g>
</g>
<g>
</g>
<g>
</g>
<g>
</g>
<g>
</g>
<g>
</g>
<g>
</g>
<g>
</g>
</svg>
