<svg xmlns="http://www.w3.org/2000/svg" viewBox="0 0 144.25 144.24">
  <title>logo</title>
  <g id="Layer_2" data-name="Layer 2">
    <g id="Layer_3" data-name="Layer 3">
      <path d="M141.63,63.53l-3-4.59a13.7,13.7,0,0,1-2.22-8.37l.35-5.49A15.76,15.76,0,0,0,128,29.93l-4.92-2.46A13.73,13.73,0,0,1,117,21.34l-2.44-4.94a15.71,15.71,0,0,0-14.16-8.8c-.32,0-.63,0-1,0L93.94,8q-.41,0-.81,0a13.58,13.58,0,0,1-7.54-2.28L81,2.65a15.82,15.82,0,0,0-17.47,0l-4.6,3A13.57,13.57,0,0,1,51.45,7.9q-.44,0-.87,0l-5.5-.35-1,0a15.69,15.69,0,0,0-14.13,8.73l-2.47,4.93a13.61,13.61,0,0,1-6.13,6.1l-4.93,2.44A15.78,15.78,0,0,0,7.64,44.8L8,50.3a13.65,13.65,0,0,1-2.26,8.35l-3,4.59a15.75,15.75,0,0,0,0,17.46l3,4.6a13.69,13.69,0,0,1,2.22,8.36l-.36,5.5a15.79,15.79,0,0,0,8.71,15.15l4.92,2.46a13.68,13.68,0,0,1,6.11,6.13l2.44,4.94a15.7,15.7,0,0,0,14.16,8.79l1,0,5.5-.33.81,0a13.58,13.58,0,0,1,7.54,2.28l4.58,3.05a15.77,15.77,0,0,0,17.47,0l4.6-3a13.49,13.49,0,0,1,7.49-2.25l.87,0,5.5.36c.34,0,.67,0,1,0A15.72,15.72,0,0,0,114.31,128l2.46-4.93a13.75,13.75,0,0,1,6.14-6.11l4.93-2.44a15.76,15.76,0,0,0,8.77-15.11l-.33-5.49a13.62,13.62,0,0,1,2.26-8.36L141.59,81A15.79,15.79,0,0,0,141.63,63.53Z" style="fill: #ba9761"/>
      <g>
        <path d="M137.52,64l-2.86-4.33a12.94,12.94,0,0,1-2.09-7.86l.34-5.18a14.85,14.85,0,0,0-8.19-14.25l-4.64-2.31a12.92,12.92,0,0,1-5.74-5.77L112,19.69a14.77,14.77,0,0,0-13.32-8.27l-.89,0-5.18.31c-.25,0-.51,0-.76,0a12.72,12.72,0,0,1-7.1-2.15L80.48,6.76A14.86,14.86,0,0,0,64,6.72L59.72,9.58a12.78,12.78,0,0,1-7,2.11c-.27,0-.54,0-.82,0l-5.17-.33c-.32,0-.64,0-1,0a14.78,14.78,0,0,0-13.29,8.22l-2.32,4.64a12.92,12.92,0,0,1-5.77,5.74L19.7,32.2a14.85,14.85,0,0,0-8.25,14.22l.31,5.17a12.89,12.89,0,0,1-2.12,7.86L6.76,63.76a14.85,14.85,0,0,0,0,16.44l2.85,4.32a12.83,12.83,0,0,1,2.09,7.87l-.33,5.17a14.84,14.84,0,0,0,8.19,14.25l4.63,2.32a12.89,12.89,0,0,1,5.75,5.77l2.3,4.64a14.76,14.76,0,0,0,13.32,8.28c.3,0,.59,0,.89,0l5.18-.31.76,0a12.76,12.76,0,0,1,7.09,2.14l4.32,2.88a14.87,14.87,0,0,0,16.43,0l4.33-2.85a12.69,12.69,0,0,1,7-2.12l.82,0,5.17.33,1,0a14.79,14.79,0,0,0,13.3-8.22l2.32-4.63a12.82,12.82,0,0,1,5.76-5.75l4.65-2.3a14.82,14.82,0,0,0,8.25-14.21l-.31-5.17a12.86,12.86,0,0,1,2.12-7.86l2.87-4.32A14.82,14.82,0,0,0,137.52,64Z" style="fill: #fff"/>
        <g>
          <line x1="72.12" y1="12.96" x2="72.12" y2="58.18" style="fill: none;stroke: #ba9761;stroke-miterlimit: 10;stroke-dasharray: 3"/>
          <line x1="20.74" y1="42.62" x2="60.56" y2="65.61" style="fill: none;stroke: #ba9761;stroke-miterlimit: 10;stroke-dasharray: 3"/>
          <line x1="93.78" y1="72.29" x2="131.46" y2="72.29" style="fill: none;stroke: #ba9761;stroke-miterlimit: 10;stroke-dasharray: 3"/>
          <line x1="12.79" y1="72.29" x2="62.13" y2="72.29" style="fill: none;stroke: #ba9761;stroke-miterlimit: 10;stroke-dasharray: 3"/>
          <line x1="84.47" y1="65.16" x2="123.51" y2="42.62" style="fill: none;stroke: #ba9761;stroke-miterlimit: 10;stroke-dasharray: 3"/>
          <line x1="20.74" y1="101.96" x2="62.13" y2="78.06" style="fill: none;stroke: #ba9761;stroke-miterlimit: 10;stroke-dasharray: 3"/>
          <line x1="77.83" y1="62.41" x2="101.79" y2="20.91" style="fill: none;stroke: #ba9761;stroke-miterlimit: 10;stroke-dasharray: 3"/>
          <line x1="42.61" y1="123.41" x2="63.01" y2="88.07" style="fill: none;stroke: #ba9761;stroke-miterlimit: 10;stroke-dasharray: 3"/>
          <g>
            <line x1="25.71" y1="60.02" x2="61.35" y2="69.44" style="fill: none;stroke: #ba9761;stroke-miterlimit: 10;stroke-dasharray: 3"/>
            <line x1="88.85" y1="67.75" x2="118.46" y2="59.71" style="fill: none;stroke: #ba9761;stroke-miterlimit: 10;stroke-dasharray: 3"/>
            <line x1="25.79" y1="84.87" x2="62.13" y2="75" style="fill: none;stroke: #ba9761;stroke-miterlimit: 10;stroke-dasharray: 3"/>
            <line x1="80.37" y1="63.99" x2="105.96" y2="38.23" style="fill: none;stroke: #ba9761;stroke-miterlimit: 10;stroke-dasharray: 3"/>
            <line x1="38.29" y1="106.35" x2="62.13" y2="82.35" style="fill: none;stroke: #ba9761;stroke-miterlimit: 10;stroke-dasharray: 3"/>
            <line x1="75.56" y1="59.71" x2="84.47" y2="26.17" style="fill: none;stroke: #ba9761;stroke-miterlimit: 10;stroke-dasharray: 3"/>
          </g>
        </g>
        <g>
          <path d="M119.85,89.87a3.66,3.66,0,0,0-3.22-1.76l-.37,0a5.51,5.51,0,0,1-1.07,0C95.77,86,89.81,62.93,76.78,65.61a15.93,15.93,0,0,0-5.85,2c-18.12,10.44,5.48,35.85-4,49.59-1.32,1.9-1.43,5.66,3.66,5.66a23.3,23.3,0,0,0,7.76-1.75,127.51,127.51,0,0,0,22.46-11.5s.39-.21,2.29-1.48a13.29,13.29,0,0,1-2.35-.24,7.61,7.61,0,0,1-2-.64c-2.62,1.64-3.43,2.07-3.43,2.07s-9.91,6-15.29,8.35c-3.58,1.58-5.93,2.17-7.37,2.17-2.74,0-2.23-2.13-.66-3.76,6.35-6.75,16-13,25.24-17.62a45.49,45.49,0,0,1,5.78-2.92c3.51-1.49,5.93-2.26,5.93-2.26l1.07-.39a17.56,17.56,0,0,1,4.4-.82c1,0,1.51.27,1.62.74.25,1.12-.94,2.59-2.73,4.17a8.79,8.79,0,0,1-.19,3.86C117.21,97.42,121.61,92.84,119.85,89.87ZM74.76,106.35a25.87,25.87,0,0,1,13.1-13.81,11.43,11.43,0,0,0-4.27.08c-1.8.42-8,2.85-10.49,6.26,2.08-4.47,6.24-9.44,11.64-11.33a6.44,6.44,0,0,0-3.37.28c-2.06.57-7.66,2-10.36,5.62h0c2.17-4.26,6.18-8.86,11.2-11,0,0-.65-.37-2.81.32s-7.28,2.62-9.94,6c1.13-3.85,5.56-8.41,10.11-10.23a12.68,12.68,0,0,0-2.89.14c-1.09.17-5.25.58-7.83,3.72h0C69.94,79,74,76.11,76.72,75.1a10.06,10.06,0,0,0-3.35.5c-1.16.36-3.88,1.55-4.91,2.94,1.63-3.12,4.43-5.79,6.5-6.32h0c-.59.1-3.39-.39-5.13.86a6.8,6.8,0,0,1,2.55-2.71,11.32,11.32,0,0,1,12.09.16c-.33.09-2,.81-2.44,1l-1,.75c.88-.38,2.83.06,4.39.41a6.74,6.74,0,0,1,2.65,1.48,8.39,8.39,0,0,0-3,1l-1,.86c1.19-.47,4.37,0,6.37.65a5,5,0,0,1,1.86,1.36c-1,.1-2.54,0-3.43.64l-1.21.9c1.49-.8,4.42,0,6.44.65a5.63,5.63,0,0,1,2.41,1.5c-1.19,0-3.65.22-4.34.92L91,83.74c2.14-1.19,5.15-.35,7,.52a10.68,10.68,0,0,1,3,1.41,10.5,10.5,0,0,0-5.14,1.51l-.76.89c2.06-1.24,5.63-.48,8.77.17a15,15,0,0,1,3.51,1.35C96.44,91.87,81.65,98.38,74.76,106.35Z" style="fill: #ba9761"/>
          <path d="M110.87,96.85a7.77,7.77,0,0,0-1.2-2.61l-1.25.49s-2.93,1.17-2.62,1.06a2.1,2.1,0,0,1,1.5,1.35c.35,1,0,2.09-.75,2.28a1.7,1.7,0,0,1-2-1,2.35,2.35,0,0,1-.17-2.11c-.91.38-1.76.74-2.27,1-2.87,1.38-5,2.43-6.34,3.2a7.38,7.38,0,0,0,1.56,3.11,8.06,8.06,0,0,0,3.93,2.38,7.76,7.76,0,0,0,5.39-.55l1.69-1.1A7.43,7.43,0,0,0,110.87,96.85Z" style="fill: #ba9761"/>
          <path d="M69.06,59.52C66,51.6,61.39,39,57.86,33c-3.12-5.27-8-8.17-11.4-6.17s-3.23,7.67-.1,13c3.48,5.91,12.44,16.11,17.85,22.64a6.53,6.53,0,0,0-.1,8c2.53-3.76,6.33-7.11,12-7.05A6.59,6.59,0,0,0,69.06,59.52ZM57,41.13s-2.43-3.27-3.44-4.87-2.54-4-2.86-4.73a3,3,0,0,1-.32-1.32.53.53,0,0,1,.54-.5,1.68,1.68,0,0,1,1.36.51,25.28,25.28,0,0,1,3.36,4.3A40.57,40.57,0,0,1,58.28,40C58.93,41.77,58.79,43.75,57,41.13Z" style="fill: #ba9761"/>
        </g>
      </g>
    </g>
  </g>
</svg>
